<mxfile host="Electron" modified="2024-07-18T20:48:41.485Z" agent="Mozilla/5.0 (Windows NT 10.0; Win64; x64) AppleWebKit/537.36 (KHTML, like Gecko) draw.io/22.1.16 Chrome/120.0.6099.109 Electron/28.1.0 Safari/537.36" etag="giKRjDyKq9FlwxuQQgU8" version="22.1.16" type="device">
  <diagram name="Page-1" id="bF4dPPyDbQ2TE73vLMhs">
    <mxGraphModel dx="819" dy="546" grid="0" gridSize="10" guides="1" tooltips="1" connect="1" arrows="1" fold="1" page="1" pageScale="1" pageWidth="500" pageHeight="300" math="0" shadow="0">
      <root>
        <mxCell id="0" />
        <mxCell id="1" parent="0" />
        <mxCell id="xYSWZGd0gz0DvYh_ufvP-20" value="" style="endArrow=block;html=1;rounded=0;endFill=1;" edge="1" parent="1" source="xYSWZGd0gz0DvYh_ufvP-34" target="xYSWZGd0gz0DvYh_ufvP-35">
          <mxGeometry width="50" height="50" relative="1" as="geometry">
            <mxPoint x="164.11823652199735" y="42.307241875219006" as="sourcePoint" />
            <mxPoint x="145.80561644598356" y="64.630372002471" as="targetPoint" />
          </mxGeometry>
        </mxCell>
        <mxCell id="xYSWZGd0gz0DvYh_ufvP-34" value="" style="ellipse;whiteSpace=wrap;html=1;aspect=fixed;fillColor=#ffe6cc;strokeColor=#d79b00;" vertex="1" parent="1">
          <mxGeometry x="176" y="1" width="30" height="30" as="geometry" />
        </mxCell>
        <mxCell id="xYSWZGd0gz0DvYh_ufvP-35" value="C" style="ellipse;whiteSpace=wrap;html=1;aspect=fixed;" vertex="1" parent="1">
          <mxGeometry x="136" y="55" width="30" height="30" as="geometry" />
        </mxCell>
        <mxCell id="xYSWZGd0gz0DvYh_ufvP-36" value="E" style="ellipse;whiteSpace=wrap;html=1;aspect=fixed;fillColor=#d5e8d4;strokeColor=#82b366;" vertex="1" parent="1">
          <mxGeometry x="146" y="116" width="30" height="30" as="geometry" />
        </mxCell>
        <mxCell id="xYSWZGd0gz0DvYh_ufvP-37" value="O" style="ellipse;whiteSpace=wrap;html=1;aspect=fixed;" vertex="1" parent="1">
          <mxGeometry x="98" y="92" width="30" height="30" as="geometry" />
        </mxCell>
        <mxCell id="xYSWZGd0gz0DvYh_ufvP-38" value="A" style="ellipse;whiteSpace=wrap;html=1;aspect=fixed;" vertex="1" parent="1">
          <mxGeometry x="204" y="116" width="30" height="30" as="geometry" />
        </mxCell>
        <mxCell id="xYSWZGd0gz0DvYh_ufvP-39" value="E" style="ellipse;whiteSpace=wrap;html=1;aspect=fixed;fillColor=#d5e8d4;strokeColor=#82b366;" vertex="1" parent="1">
          <mxGeometry x="146" y="269" width="30" height="30" as="geometry" />
        </mxCell>
        <mxCell id="xYSWZGd0gz0DvYh_ufvP-40" value="T" style="ellipse;whiteSpace=wrap;html=1;aspect=fixed;" vertex="1" parent="1">
          <mxGeometry x="124" y="170" width="30" height="30" as="geometry" />
        </mxCell>
        <mxCell id="xYSWZGd0gz0DvYh_ufvP-41" value="T" style="ellipse;whiteSpace=wrap;html=1;aspect=fixed;" vertex="1" parent="1">
          <mxGeometry x="150" y="215" width="30" height="30" as="geometry" />
        </mxCell>
        <mxCell id="xYSWZGd0gz0DvYh_ufvP-42" value="" style="endArrow=block;html=1;rounded=0;endFill=1;" edge="1" parent="1" source="xYSWZGd0gz0DvYh_ufvP-35" target="xYSWZGd0gz0DvYh_ufvP-36">
          <mxGeometry width="50" height="50" relative="1" as="geometry">
            <mxPoint x="191" y="44" as="sourcePoint" />
            <mxPoint x="155.80561644598356" y="74.630372002471" as="targetPoint" />
          </mxGeometry>
        </mxCell>
        <mxCell id="xYSWZGd0gz0DvYh_ufvP-43" value="" style="endArrow=block;html=1;rounded=0;endFill=1;" edge="1" parent="1" source="xYSWZGd0gz0DvYh_ufvP-36" target="xYSWZGd0gz0DvYh_ufvP-40">
          <mxGeometry width="50" height="50" relative="1" as="geometry">
            <mxPoint x="201" y="54" as="sourcePoint" />
            <mxPoint x="165.80561644598356" y="84.630372002471" as="targetPoint" />
          </mxGeometry>
        </mxCell>
        <mxCell id="xYSWZGd0gz0DvYh_ufvP-44" value="" style="endArrow=block;html=1;rounded=0;endFill=1;" edge="1" parent="1" source="xYSWZGd0gz0DvYh_ufvP-40" target="xYSWZGd0gz0DvYh_ufvP-41">
          <mxGeometry width="50" height="50" relative="1" as="geometry">
            <mxPoint x="211" y="64" as="sourcePoint" />
            <mxPoint x="175.80561644598356" y="94.630372002471" as="targetPoint" />
          </mxGeometry>
        </mxCell>
        <mxCell id="xYSWZGd0gz0DvYh_ufvP-45" value="" style="endArrow=block;html=1;rounded=0;endFill=1;" edge="1" parent="1" source="xYSWZGd0gz0DvYh_ufvP-41" target="xYSWZGd0gz0DvYh_ufvP-39">
          <mxGeometry width="50" height="50" relative="1" as="geometry">
            <mxPoint x="221" y="74" as="sourcePoint" />
            <mxPoint x="185.80561644598356" y="104.630372002471" as="targetPoint" />
          </mxGeometry>
        </mxCell>
        <mxCell id="xYSWZGd0gz0DvYh_ufvP-47" value="M" style="ellipse;whiteSpace=wrap;html=1;aspect=fixed;" vertex="1" parent="1">
          <mxGeometry x="91" y="137" width="30" height="30" as="geometry" />
        </mxCell>
        <mxCell id="xYSWZGd0gz0DvYh_ufvP-48" value="M" style="ellipse;whiteSpace=wrap;html=1;aspect=fixed;" vertex="1" parent="1">
          <mxGeometry x="82" y="182" width="30" height="30" as="geometry" />
        </mxCell>
        <mxCell id="xYSWZGd0gz0DvYh_ufvP-49" value="" style="endArrow=block;html=1;rounded=0;endFill=1;" edge="1" parent="1" target="xYSWZGd0gz0DvYh_ufvP-47" source="xYSWZGd0gz0DvYh_ufvP-37">
          <mxGeometry width="50" height="50" relative="1" as="geometry">
            <mxPoint x="172.5" y="136" as="sourcePoint" />
            <mxPoint x="261.30561644598356" y="68.630372002471" as="targetPoint" />
          </mxGeometry>
        </mxCell>
        <mxCell id="xYSWZGd0gz0DvYh_ufvP-50" value="" style="endArrow=block;html=1;rounded=0;endFill=1;" edge="1" parent="1" source="xYSWZGd0gz0DvYh_ufvP-47" target="xYSWZGd0gz0DvYh_ufvP-48">
          <mxGeometry width="50" height="50" relative="1" as="geometry">
            <mxPoint x="306.5" y="48" as="sourcePoint" />
            <mxPoint x="271.30561644598356" y="78.630372002471" as="targetPoint" />
          </mxGeometry>
        </mxCell>
        <mxCell id="xYSWZGd0gz0DvYh_ufvP-51" value="" style="endArrow=block;html=1;rounded=0;endFill=1;" edge="1" parent="1" source="xYSWZGd0gz0DvYh_ufvP-48" target="xYSWZGd0gz0DvYh_ufvP-39">
          <mxGeometry width="50" height="50" relative="1" as="geometry">
            <mxPoint x="316.5" y="58" as="sourcePoint" />
            <mxPoint x="72.08803543667818" y="299.0395127456743" as="targetPoint" />
          </mxGeometry>
        </mxCell>
        <mxCell id="xYSWZGd0gz0DvYh_ufvP-52" value="" style="endArrow=block;html=1;rounded=0;endFill=1;" edge="1" parent="1" source="xYSWZGd0gz0DvYh_ufvP-35" target="xYSWZGd0gz0DvYh_ufvP-37">
          <mxGeometry width="50" height="50" relative="1" as="geometry">
            <mxPoint x="193" y="46" as="sourcePoint" />
            <mxPoint x="155" y="90" as="targetPoint" />
          </mxGeometry>
        </mxCell>
        <mxCell id="xYSWZGd0gz0DvYh_ufvP-54" value="R" style="ellipse;whiteSpace=wrap;html=1;aspect=fixed;fillColor=#d5e8d4;strokeColor=#82b366;" vertex="1" parent="1">
          <mxGeometry x="172" y="163" width="30" height="30" as="geometry" />
        </mxCell>
        <mxCell id="xYSWZGd0gz0DvYh_ufvP-56" value="" style="endArrow=block;html=1;rounded=0;endFill=1;" edge="1" parent="1" target="xYSWZGd0gz0DvYh_ufvP-54" source="xYSWZGd0gz0DvYh_ufvP-38">
          <mxGeometry width="50" height="50" relative="1" as="geometry">
            <mxPoint x="180" y="179" as="sourcePoint" />
            <mxPoint x="311.30561644598356" y="76.630372002471" as="targetPoint" />
          </mxGeometry>
        </mxCell>
        <mxCell id="xYSWZGd0gz0DvYh_ufvP-57" value="" style="endArrow=block;html=1;rounded=0;endFill=1;" edge="1" parent="1" source="xYSWZGd0gz0DvYh_ufvP-54" target="xYSWZGd0gz0DvYh_ufvP-41">
          <mxGeometry width="50" height="50" relative="1" as="geometry">
            <mxPoint x="356.5" y="56" as="sourcePoint" />
            <mxPoint x="139.7844059874551" y="226.28347935156228" as="targetPoint" />
          </mxGeometry>
        </mxCell>
        <mxCell id="xYSWZGd0gz0DvYh_ufvP-65" value="" style="endArrow=block;html=1;rounded=0;endFill=1;" edge="1" parent="1" source="xYSWZGd0gz0DvYh_ufvP-35" target="xYSWZGd0gz0DvYh_ufvP-38">
          <mxGeometry width="50" height="50" relative="1" as="geometry">
            <mxPoint x="143" y="125" as="sourcePoint" />
            <mxPoint x="145" y="142" as="targetPoint" />
          </mxGeometry>
        </mxCell>
        <mxCell id="xYSWZGd0gz0DvYh_ufvP-67" value="U" style="ellipse;whiteSpace=wrap;html=1;aspect=fixed;" vertex="1" parent="1">
          <mxGeometry x="221" y="156" width="30" height="30" as="geometry" />
        </mxCell>
        <mxCell id="xYSWZGd0gz0DvYh_ufvP-68" value="S" style="ellipse;whiteSpace=wrap;html=1;aspect=fixed;" vertex="1" parent="1">
          <mxGeometry x="245" y="200" width="30" height="30" as="geometry" />
        </mxCell>
        <mxCell id="xYSWZGd0gz0DvYh_ufvP-69" value="" style="endArrow=block;html=1;rounded=0;endFill=1;" edge="1" parent="1" target="xYSWZGd0gz0DvYh_ufvP-67" source="xYSWZGd0gz0DvYh_ufvP-38">
          <mxGeometry width="50" height="50" relative="1" as="geometry">
            <mxPoint x="241" y="175" as="sourcePoint" />
            <mxPoint x="367.30561644598356" y="80.630372002471" as="targetPoint" />
            <Array as="points" />
          </mxGeometry>
        </mxCell>
        <mxCell id="xYSWZGd0gz0DvYh_ufvP-70" value="" style="endArrow=block;html=1;rounded=0;endFill=1;" edge="1" parent="1" source="xYSWZGd0gz0DvYh_ufvP-67" target="xYSWZGd0gz0DvYh_ufvP-68">
          <mxGeometry width="50" height="50" relative="1" as="geometry">
            <mxPoint x="412.5" y="60" as="sourcePoint" />
            <mxPoint x="377.30561644598356" y="90.630372002471" as="targetPoint" />
          </mxGeometry>
        </mxCell>
        <mxCell id="xYSWZGd0gz0DvYh_ufvP-71" value="" style="endArrow=block;html=1;rounded=0;endFill=1;" edge="1" parent="1" source="xYSWZGd0gz0DvYh_ufvP-68" target="xYSWZGd0gz0DvYh_ufvP-39">
          <mxGeometry width="50" height="50" relative="1" as="geometry">
            <mxPoint x="422.5" y="70" as="sourcePoint" />
            <mxPoint x="191.0397003109706" y="291.6393263057855" as="targetPoint" />
          </mxGeometry>
        </mxCell>
        <mxCell id="xYSWZGd0gz0DvYh_ufvP-73" value="D" style="ellipse;whiteSpace=wrap;html=1;aspect=fixed;" vertex="1" parent="1">
          <mxGeometry x="294" y="142" width="30" height="30" as="geometry" />
        </mxCell>
        <mxCell id="xYSWZGd0gz0DvYh_ufvP-75" value="" style="endArrow=block;html=1;rounded=0;endFill=1;" edge="1" parent="1" target="xYSWZGd0gz0DvYh_ufvP-73" source="xYSWZGd0gz0DvYh_ufvP-38">
          <mxGeometry width="50" height="50" relative="1" as="geometry">
            <mxPoint x="263" y="158.5" as="sourcePoint" />
            <mxPoint x="429.30561644598356" y="69.130372002471" as="targetPoint" />
            <Array as="points" />
          </mxGeometry>
        </mxCell>
        <mxCell id="xYSWZGd0gz0DvYh_ufvP-76" value="" style="endArrow=block;html=1;rounded=0;endFill=1;" edge="1" parent="1" source="xYSWZGd0gz0DvYh_ufvP-73" target="xYSWZGd0gz0DvYh_ufvP-68">
          <mxGeometry width="50" height="50" relative="1" as="geometry">
            <mxPoint x="474.5" y="48.5" as="sourcePoint" />
            <mxPoint x="274.206766490513" y="194.0080976256013" as="targetPoint" />
          </mxGeometry>
        </mxCell>
        <mxCell id="xYSWZGd0gz0DvYh_ufvP-78" value="C" style="ellipse;whiteSpace=wrap;html=1;aspect=fixed;fillColor=#d5e8d4;strokeColor=#82b366;" vertex="1" parent="1">
          <mxGeometry x="292" y="241" width="30" height="30" as="geometry" />
        </mxCell>
        <mxCell id="xYSWZGd0gz0DvYh_ufvP-79" value="U" style="ellipse;whiteSpace=wrap;html=1;aspect=fixed;" vertex="1" parent="1">
          <mxGeometry x="292" y="191" width="30" height="30" as="geometry" />
        </mxCell>
        <mxCell id="xYSWZGd0gz0DvYh_ufvP-80" value="" style="endArrow=block;html=1;rounded=0;endFill=1;" edge="1" parent="1" target="xYSWZGd0gz0DvYh_ufvP-79" source="xYSWZGd0gz0DvYh_ufvP-73">
          <mxGeometry width="50" height="50" relative="1" as="geometry">
            <mxPoint x="332" y="239.5" as="sourcePoint" />
            <mxPoint x="491.30561644598356" y="94.630372002471" as="targetPoint" />
          </mxGeometry>
        </mxCell>
        <mxCell id="xYSWZGd0gz0DvYh_ufvP-81" value="" style="endArrow=block;html=1;rounded=0;endFill=1;" edge="1" parent="1" source="xYSWZGd0gz0DvYh_ufvP-79" target="xYSWZGd0gz0DvYh_ufvP-78">
          <mxGeometry width="50" height="50" relative="1" as="geometry">
            <mxPoint x="536.5" y="74" as="sourcePoint" />
            <mxPoint x="501.30561644598356" y="104.630372002471" as="targetPoint" />
          </mxGeometry>
        </mxCell>
        <mxCell id="xYSWZGd0gz0DvYh_ufvP-85" value="T" style="ellipse;whiteSpace=wrap;html=1;aspect=fixed;fillColor=#d5e8d4;strokeColor=#82b366;" vertex="1" parent="1">
          <mxGeometry x="354" y="200" width="30" height="30" as="geometry" />
        </mxCell>
        <mxCell id="xYSWZGd0gz0DvYh_ufvP-86" value="E" style="ellipse;whiteSpace=wrap;html=1;aspect=fixed;" vertex="1" parent="1">
          <mxGeometry x="354" y="146" width="30" height="30" as="geometry" />
        </mxCell>
        <mxCell id="xYSWZGd0gz0DvYh_ufvP-87" value="" style="endArrow=block;html=1;rounded=0;endFill=1;" edge="1" parent="1" target="xYSWZGd0gz0DvYh_ufvP-86" source="xYSWZGd0gz0DvYh_ufvP-73">
          <mxGeometry width="50" height="50" relative="1" as="geometry">
            <mxPoint x="346" y="216" as="sourcePoint" />
            <mxPoint x="542.3056164459836" y="86.630372002471" as="targetPoint" />
          </mxGeometry>
        </mxCell>
        <mxCell id="xYSWZGd0gz0DvYh_ufvP-88" value="" style="endArrow=block;html=1;rounded=0;endFill=1;" edge="1" parent="1" source="xYSWZGd0gz0DvYh_ufvP-86" target="xYSWZGd0gz0DvYh_ufvP-85">
          <mxGeometry width="50" height="50" relative="1" as="geometry">
            <mxPoint x="587.5" y="66" as="sourcePoint" />
            <mxPoint x="552.3056164459836" y="96.630372002471" as="targetPoint" />
          </mxGeometry>
        </mxCell>
        <mxCell id="xYSWZGd0gz0DvYh_ufvP-89" value="" style="endArrow=block;html=1;rounded=0;endFill=1;" edge="1" parent="1" target="xYSWZGd0gz0DvYh_ufvP-90" source="xYSWZGd0gz0DvYh_ufvP-34">
          <mxGeometry width="50" height="50" relative="1" as="geometry">
            <mxPoint x="378" y="32" as="sourcePoint" />
            <mxPoint x="340.80561644598356" y="60.630372002471006" as="targetPoint" />
          </mxGeometry>
        </mxCell>
        <mxCell id="xYSWZGd0gz0DvYh_ufvP-90" value="L" style="ellipse;whiteSpace=wrap;html=1;aspect=fixed;" vertex="1" parent="1">
          <mxGeometry x="232" y="36" width="30" height="30" as="geometry" />
        </mxCell>
        <mxCell id="xYSWZGd0gz0DvYh_ufvP-91" value="E" style="ellipse;whiteSpace=wrap;html=1;aspect=fixed;fillColor=#d5e8d4;strokeColor=#82b366;" vertex="1" parent="1">
          <mxGeometry x="271" y="73" width="30" height="30" as="geometry" />
        </mxCell>
        <mxCell id="xYSWZGd0gz0DvYh_ufvP-92" value="" style="endArrow=block;html=1;rounded=0;endFill=1;" edge="1" parent="1" source="xYSWZGd0gz0DvYh_ufvP-90" target="xYSWZGd0gz0DvYh_ufvP-91">
          <mxGeometry width="50" height="50" relative="1" as="geometry">
            <mxPoint x="386" y="40" as="sourcePoint" />
            <mxPoint x="350.80561644598356" y="70.630372002471" as="targetPoint" />
          </mxGeometry>
        </mxCell>
        <mxCell id="xYSWZGd0gz0DvYh_ufvP-93" value="X" style="ellipse;whiteSpace=wrap;html=1;aspect=fixed;fillColor=#d5e8d4;strokeColor=#82b366;" vertex="1" parent="1">
          <mxGeometry x="411" y="253" width="30" height="30" as="geometry" />
        </mxCell>
        <mxCell id="xYSWZGd0gz0DvYh_ufvP-94" value="A" style="ellipse;whiteSpace=wrap;html=1;aspect=fixed;" vertex="1" parent="1">
          <mxGeometry x="411" y="149" width="30" height="30" as="geometry" />
        </mxCell>
        <mxCell id="xYSWZGd0gz0DvYh_ufvP-95" value="U" style="ellipse;whiteSpace=wrap;html=1;aspect=fixed;" vertex="1" parent="1">
          <mxGeometry x="413" y="200" width="30" height="30" as="geometry" />
        </mxCell>
        <mxCell id="xYSWZGd0gz0DvYh_ufvP-96" value="" style="endArrow=block;html=1;rounded=0;endFill=1;" edge="1" parent="1" target="xYSWZGd0gz0DvYh_ufvP-94" source="xYSWZGd0gz0DvYh_ufvP-86">
          <mxGeometry width="50" height="50" relative="1" as="geometry">
            <mxPoint x="404" y="261" as="sourcePoint" />
            <mxPoint x="570.3056164459836" y="171.630372002471" as="targetPoint" />
            <Array as="points" />
          </mxGeometry>
        </mxCell>
        <mxCell id="xYSWZGd0gz0DvYh_ufvP-97" value="" style="endArrow=block;html=1;rounded=0;endFill=1;" edge="1" parent="1" source="xYSWZGd0gz0DvYh_ufvP-94" target="xYSWZGd0gz0DvYh_ufvP-95">
          <mxGeometry width="50" height="50" relative="1" as="geometry">
            <mxPoint x="615.5" y="151" as="sourcePoint" />
            <mxPoint x="580.3056164459836" y="181.630372002471" as="targetPoint" />
          </mxGeometry>
        </mxCell>
        <mxCell id="xYSWZGd0gz0DvYh_ufvP-98" value="" style="endArrow=block;html=1;rounded=0;endFill=1;" edge="1" parent="1" source="xYSWZGd0gz0DvYh_ufvP-95" target="xYSWZGd0gz0DvYh_ufvP-93">
          <mxGeometry width="50" height="50" relative="1" as="geometry">
            <mxPoint x="625.5" y="161" as="sourcePoint" />
            <mxPoint x="590.3056164459836" y="191.630372002471" as="targetPoint" />
          </mxGeometry>
        </mxCell>
        <mxCell id="xYSWZGd0gz0DvYh_ufvP-99" value="A" style="ellipse;whiteSpace=wrap;html=1;aspect=fixed;fillColor=#d5e8d4;strokeColor=#82b366;" vertex="1" parent="1">
          <mxGeometry x="317" y="49" width="30" height="30" as="geometry" />
        </mxCell>
        <mxCell id="xYSWZGd0gz0DvYh_ufvP-100" value="" style="endArrow=block;html=1;rounded=0;endFill=1;" edge="1" parent="1" source="xYSWZGd0gz0DvYh_ufvP-90" target="xYSWZGd0gz0DvYh_ufvP-99">
          <mxGeometry width="50" height="50" relative="1" as="geometry">
            <mxPoint x="211" y="37" as="sourcePoint" />
            <mxPoint x="239" y="71" as="targetPoint" />
          </mxGeometry>
        </mxCell>
        <mxCell id="xYSWZGd0gz0DvYh_ufvP-101" value="S" style="ellipse;whiteSpace=wrap;html=1;aspect=fixed;fillColor=#d5e8d4;strokeColor=#82b366;" vertex="1" parent="1">
          <mxGeometry x="313" y="107" width="30" height="30" as="geometry" />
        </mxCell>
        <mxCell id="xYSWZGd0gz0DvYh_ufvP-103" value="" style="endArrow=block;html=1;rounded=0;endFill=1;" edge="1" parent="1" source="xYSWZGd0gz0DvYh_ufvP-91" target="xYSWZGd0gz0DvYh_ufvP-101">
          <mxGeometry width="50" height="50" relative="1" as="geometry">
            <mxPoint x="272" y="63" as="sourcePoint" />
            <mxPoint x="327" y="72" as="targetPoint" />
          </mxGeometry>
        </mxCell>
      </root>
    </mxGraphModel>
  </diagram>
</mxfile>
